{"title":"Saw Hexalogy Unrated DC (PSP + Ipod touch + Zune)","uid":5736569,"size":2345048698,"categoryP":"video","categoryS":"handheld","magnet":"?xt=urn:btih:ff691d51d093b8827e6b83f8eda20aae80ea67f9&amp;dn=Saw+Hexalogy+Unrated+DC+%28PSP+%2B+Ipod+touch+%2B+Zune%29&amp;tr=udp%3A%2F%2Ftracker.openbittorrent.com%3A80&amp;tr=udp%3A%2F%2Fopen.demonii.com%3A1337&amp;tr=udp%3A%2F%2Ftracker.coppersurfer.tk%3A6969&amp;tr=udp%3A%2F%2Fexodus.desync.com%3A6969","seeders":0,"leechers":1,"uploader":"on.off.on","files":6,"time":1280836668,"description":"Saw Hexalogy Unrated Director's Cut\n &lt;a href=&quot;\nhttp://www.imdb.com/title/tt0387564/&quot; rel=&quot;nofollow&quot; target=&quot;_NEW&quot;&gt;\nhttp://www.imdb.com/title/tt0387564/&lt;/a&gt;\n &lt;a href=&quot;\nhttp://www.imdb.com/title/tt0432348/&quot; rel=&quot;nofollow&quot; target=&quot;_NEW&quot;&gt;\nhttp://www.imdb.com/title/tt0432348/&lt;/a&gt;\n &lt;a href=&quot;\nhttp://www.imdb.com/title/tt0489270/&quot; rel=&quot;nofollow&quot; target=&quot;_NEW&quot;&gt;\nhttp://www.imdb.com/title/tt0489270/&lt;/a&gt;\n &lt;a href=&quot;\nhttp://www.imdb.com/title/tt0890870/&quot; rel=&quot;nofollow&quot; target=&quot;_NEW&quot;&gt;\nhttp://www.imdb.com/title/tt0890870/&lt;/a&gt;\n &lt;a href=&quot;\nhttp://www.imdb.com/title/tt1132626/&quot; rel=&quot;nofollow&quot; target=&quot;_NEW&quot;&gt;\nhttp://www.imdb.com/title/tt1132626/&lt;/a&gt;\n &lt;a href=&quot;\nhttp://www.imdb.com/title/tt1233227/&quot; rel=&quot;nofollow&quot; target=&quot;_NEW&quot;&gt;\nhttp://www.imdb.com/title/tt1233227/&lt;/a&gt;\n\n\n\nSubs :\n\nN/A\n\nSource  :\n\nSaw.2004.720p.BluRay.x264-SEPTiC\n\nSaw.II.2005.DVD5.720p.BluRay.x264-CDDHD\n\nSaw.III.2006.DVD5.720p.BluRay.x264-REVEiLLE\n\nSaw.IV.720p.Bluray.x264-SEPTiC\n\nSaw.V.720p.Bluray.x264-SEPTiC\n\nSaw.VI.2009.720p.BluRay.x264-METiS\n\nInfo :\n\nID                               : 1\nFormat                           : AVC\nFormat/Info                      : Advanced Video Codec\nFormat profile                   : &lt;a class=&quot;__cf_email__&quot; href=&quot;/cdn-cgi/l/email-protection&quot; data-cfemail=&quot;9bd9fae8fef7f2f5fedbd7a8b5ab&quot;&gt;[email&amp;#160;protected]&lt;/a&gt;&lt;script cf-hash='f9e31' type=&quot;text/javascript&quot;&gt;\n/* &lt;![CDATA[ */!function(){try{var t=&quot;currentScript&quot;in document?document.currentScript:function(){for(var t=document.getElementsByTagName(&quot;script&quot;),e=t.length;e--;)if(t[e].getAttribute(&quot;cf-hash&quot;))return t[e]}();if(t&amp;&amp;t.previousSibling){var e,r,n,i,c=t.previousSibling,a=c.getAttribute(&quot;data-cfemail&quot;);if(a){for(e=&quot;&quot;,r=parseInt(a.substr(0,2),16),n=2;a.length-n;n+=2)i=parseInt(a.substr(n,2),16)^r,e+=String.fromCharCode(i);e=document.createTextNode(e),c.parentNode.replaceChild(e,c)}}}catch(u){}}();/* ]]&gt; */&lt;/script&gt;\nFormat settings, CABAC           : No\nFormat settings, ReFrames        : 3 frames\nCodec ID                         : avc1\nCodec ID/Info                    : Advanced Video Coding\nDuration                         : 1h 42mn\nBit rate mode                    : Variable\nBit rate                         : 395 Kbps\nWidth                            : 480 pixels\nHeight                           : 272 pixels\nDisplay aspect ratio             : 16:9\nFrame rate mode                  : Variable\nFrame rate                       : 23.976 fps\nMinimum frame rate               : 23.810 fps\nMaximum frame rate               : 24.390 fps\nColor space                      : YUV\nChroma subsampling               : 4:2:0\nBit depth                        : 8 bits\nScan type                        : Progressive\nBits/(Pixel*Frame)               : 0.126\nStream size                      : 290 MiB (75%)\nWriting library                  : x264 core 79\n\nID                               : 2\nFormat                           : AAC\nFormat/Info                      : Advanced Audio Codec\nFormat version                   : Version 4\nFormat profile                   : LC\nFormat settings, SBR             : No\nCodec ID                         : 40\nDuration                         : 1h 42mn\nBit rate mode                    : Variable\nBit rate                         : 128 Kbps\nMaximum bit rate                 : 188 Kbps\nChannel(s)                       : 2 channels\nChannel positions                : Front: L R\nSampling rate                    : 48.0 KHz\nStream size                      : 94.0 MiB (24%)\n\nScreens:\n &lt;a href=&quot;\nhttp://img33.imageshack.us/img33/2074/sawiiiooom4vthumbs20100.jpg&quot; rel=&quot;nofollow&quot; target=&quot;_NEW&quot;&gt;\nhttp://img33.imageshack.us/img33/2074/sawiiiooom4vthumbs20100.jpg&lt;/a&gt;\n &lt;a href=&quot;\nhttp://img823.imageshack.us/img823/7831/sawiiooom4vthumbs201008.jpg&quot; rel=&quot;nofollow&quot; target=&quot;_NEW&quot;&gt;\nhttp://img823.imageshack.us/img823/7831/sawiiooom4vthumbs201008.jpg&lt;/a&gt;\n &lt;a href=&quot;\nhttp://img72.imageshack.us/img72/6263/sawiooom4vthumbs2010080.jpg&quot; rel=&quot;nofollow&quot; target=&quot;_NEW&quot;&gt;\nhttp://img72.imageshack.us/img72/6263/sawiooom4vthumbs2010080.jpg&lt;/a&gt;\n &lt;a href=&quot;\nhttp://img841.imageshack.us/img841/4981/sawivooom4vthumbs201008.jpg&quot; rel=&quot;nofollow&quot; target=&quot;_NEW&quot;&gt;\nhttp://img841.imageshack.us/img841/4981/sawivooom4vthumbs201008.jpg&lt;/a&gt;\n &lt;a href=&quot;\nhttp://img594.imageshack.us/img594/4964/sawviooom4vthumbs201008.jpg&quot; rel=&quot;nofollow&quot; target=&quot;_NEW&quot;&gt;\nhttp://img594.imageshack.us/img594/4964/sawviooom4vthumbs201008.jpg&lt;/a&gt;\n &lt;a href=&quot;\nhttp://img33.imageshack.us/img33/9288/sawvooom4vthumbs2010080.jpg&quot; rel=&quot;nofollow&quot; target=&quot;_NEW&quot;&gt;\nhttp://img33.imageshack.us/img33/9288/sawvooom4vthumbs2010080.jpg&lt;/a&gt;\n\n\nALL REQUESTS WILL BE IGNORED FOR NOW.. HAVE WAY TOO MANY MOVIES TO DO! LOL\n\nPLEASE LET THE TORRENT SEED AND SPREAD THE WORD ABOUT IT! \n\n\nLet me know what I can do to be your trusted source of Handheld videos.\n &lt;a href=&quot;\nhttp://thepiratebay.se/user/on.off.on/&quot; rel=&quot;nofollow&quot; target=&quot;_NEW&quot;&gt;\nhttp://thepiratebay.se/user/on.off.on/&lt;/a&gt; -OOO","torrent":{"xt":"urn:btih:ff691d51d093b8827e6b83f8eda20aae80ea67f9","amp;dn":"Saw+Hexalogy+Unrated+DC+%28PSP+%2B+Ipod+touch+%2B+Zune%29","amp;tr":["udp%3A%2F%2Ftracker.openbittorrent.com%3A80","udp%3A%2F%2Fopen.demonii.com%3A1337","udp%3A%2F%2Ftracker.coppersurfer.tk%3A6969","udp%3A%2F%2Fexodus.desync.com%3A6969"],"infoHash":"ff691d51d093b8827e6b83f8eda20aae80ea67f9","infoHashBuffer":{"type":"Buffer","data":[255,105,29,81,208,147,184,130,126,107,131,248,237,162,10,174,128,234,103,249]},"announce":[],"urlList":[]}}